<?xml version="1.0" encoding="UTF-8"?>
<svg xmlns="http://www.w3.org/2000/svg" width="1280" height="720" viewBox="0 0 1280 720">

    <defs>
      <linearGradient id="hdrGrad" x1="0" y1="0" x2="1" y2="0">
        <stop offset="0%" stop-color="#004A82"/><stop offset="55%" stop-color="#006BB7"/><stop offset="100%" stop-color="#3A9BD9"/>
      </linearGradient>
      <linearGradient id="coverGrad" x1="0" y1="0" x2="1" y2="1">
        <stop offset="0%" stop-color="#003D6B"/><stop offset="100%" stop-color="#006BB7"/>
      </linearGradient>
      <linearGradient id="goldGrad" x1="0" y1="0" x2="1" y2="0">
        <stop offset="0%" stop-color="#C49A3D"/><stop offset="100%" stop-color="#D4A84B"/>
      </linearGradient>
      <linearGradient id="panelGrad" x1="0" y1="0" x2="0" y2="1">
        <stop offset="0%" stop-color="#ffffff"/><stop offset="100%" stop-color="#E3F2FD"/>
      </linearGradient>
      <linearGradient id="grassGrad" x1="0" y1="0" x2="0" y2="1">
        <stop offset="0%" stop-color="#5A9E56"/><stop offset="100%" stop-color="#3D7A3A"/>
      </linearGradient>
      <filter id="shadow" x="-10%" y="-10%" width="120%" height="120%">
        <feDropShadow dx="0" dy="5" stdDeviation="10" flood-color="#003D6B" flood-opacity="0.2"/>
      </filter>
      <filter id="glow"><feGaussianBlur stdDeviation="4" result="b"/><feMerge><feMergeNode in="b"/><feMergeNode in="SourceGraphic"/></feMerge></filter>
      <marker id="arr" markerWidth="10" markerHeight="8" refX="9" refY="4" orient="auto">
        <polygon points="0,0 10,4 0,8" fill="#D4A84B"/>
      </marker>
      <symbol id="ico-wifi" viewBox="0 0 24 24">
        <path d="M12 18c1.1 0 2-.9 2-2s-.9-2-2-2-2 .9-2 2 .9 2 2 2z" fill="#fff"/>
        <path d="M12 6C8 6 4.5 7.6 2 10l1.5 1.5C5.5 9.2 8.6 8 12 8s6.5 1.2 8.5 3.5L22 10c-2.5-2.4-6-4-10-4z" fill="#fff" opacity="0.9"/>
        <path d="M12 10c-2.5 0-4.8 1-6.5 2.6L7 14c1.3-1.2 3.1-2 5-2s3.7.8 5 2l1.5-1.4C17.8 11 15.5 10 12 10z" fill="#fff" opacity="0.75"/>
      </symbol>
      <symbol id="ico-chip" viewBox="0 0 24 24">
        <rect x="6" y="6" width="12" height="12" rx="2" fill="none" stroke="#fff" stroke-width="1.5"/>
        <path d="M9 3v3M12 3v3M15 3v3M9 18v3M12 18v3M15 18v3M3 9h3M3 12h3M3 15h3M18 9h3M18 12h3M18 15h3" stroke="#fff" stroke-width="1.5"/>
      </symbol>
      <symbol id="ico-hammer" viewBox="0 0 24 24">
        <rect x="4" y="14" width="14" height="4" rx="1" fill="#D4A84B" transform="rotate(-35 11 16)"/>
        <rect x="14" y="4" width="6" height="10" rx="1" fill="#8B6914" transform="rotate(-35 17 9)"/>
      </symbol>
    </defs>
    <g id="deco-dots" opacity="0.5"><circle cx="980" cy="120" r="2.5" fill="#3A9BD9" opacity="0.35"/>
<circle cx="1022" cy="120" r="2.5" fill="#3A9BD9" opacity="0.35"/>
<circle cx="1064" cy="120" r="2.5" fill="#3A9BD9" opacity="0.35"/>
<circle cx="1106" cy="120" r="2.5" fill="#3A9BD9" opacity="0.35"/>
<circle cx="1148" cy="120" r="2.5" fill="#3A9BD9" opacity="0.35"/>
<circle cx="1190" cy="120" r="2.5" fill="#3A9BD9" opacity="0.35"/>
<circle cx="980" cy="168" r="2.5" fill="#3A9BD9" opacity="0.35"/>
<circle cx="1022" cy="168" r="2.5" fill="#3A9BD9" opacity="0.35"/>
<circle cx="1064" cy="168" r="2.5" fill="#3A9BD9" opacity="0.35"/>
<circle cx="1106" cy="168" r="2.5" fill="#3A9BD9" opacity="0.35"/>
<circle cx="1148" cy="168" r="2.5" fill="#3A9BD9" opacity="0.35"/>
<circle cx="1190" cy="168" r="2.5" fill="#3A9BD9" opacity="0.35"/>
<circle cx="980" cy="216" r="2.5" fill="#3A9BD9" opacity="0.35"/>
<circle cx="1022" cy="216" r="2.5" fill="#3A9BD9" opacity="0.35"/>
<circle cx="1064" cy="216" r="2.5" fill="#3A9BD9" opacity="0.35"/>
<circle cx="1106" cy="216" r="2.5" fill="#3A9BD9" opacity="0.35"/>
<circle cx="1148" cy="216" r="2.5" fill="#3A9BD9" opacity="0.35"/>
<circle cx="1190" cy="216" r="2.5" fill="#3A9BD9" opacity="0.35"/></g>

<rect width="1280" height="720" fill="#FAFCFF"/>

    <rect x="0" y="0" width="8" height="720" fill="#006BB7"/>
    <rect x="8" y="0" width="1272" height="78" fill="url(#hdrGrad)"/>
    <rect x="52" y="68" width="120" height="4" fill="url(#goldGrad)" rx="2"/>
    <text x="52" y="48" font-family="Microsoft YaHei, PingFang SC, sans-serif" font-size="28" font-weight="700" fill="#fff">项目背景与动机（起-痛-机-愿）</text>
    <polygon points="1180,78 1280,78 1280,180 1100,78" fill="#3A9BD9" opacity="0.12"/>
    
    <rect x="0" y="658" width="1280" height="62" fill="#FAFCFF"/>
    <line x1="0" y1="658" x2="1280" y2="658" stroke="#E3F2FD" stroke-width="1"/>
    <text x="60" y="694" font-family="Microsoft YaHei, PingFang SC, sans-serif" font-size="11" fill="#6B7B8C">SmartMole Pro · 第六组</text>
    <text x="640" y="694" text-anchor="middle" font-family="Microsoft YaHei, PingFang SC, sans-serif" font-size="11" fill="#6B7B8C">背景与目标</text>
    <rect x="1188" y="672" rx="8" width="32" height="28" fill="url(#hdrGrad)"/>
    <text x="1204" y="692" text-anchor="middle" font-family="Microsoft YaHei, PingFang SC, sans-serif" font-size="12" font-weight="700" fill="#fff">2</text>
    
    
    <path d="M0,680 Q320,650 640,680 T1280,660 L1280,720 L0,720 Z" fill="#006BB7" fill-opacity="0.08"/>
    <path d="M0,700 Q400,670 800,700 T1280,685 L1280,720 L0,720 Z" fill="#3A9BD9" fill-opacity="0.044000000000000004"/>
    
    <rect x="52" y="94" width="4" height="20" rx="2" fill="#006BB7"/>
<text x="66" y="108" font-family="Microsoft YaHei, PingFang SC, sans-serif" font-size="16" fill="#333D4A">起：WhackMole + OpenVela/NuttX 可运行</text>
<rect x="52" y="126" width="4" height="20" rx="2" fill="#006BB7"/>
<text x="66" y="140" font-family="Microsoft YaHei, PingFang SC, sans-serif" font-size="16" fill="#333D4A">痛：无联机、无声光、无持久化</text>
<rect x="52" y="158" width="4" height="20" rx="2" fill="#006BB7"/>
<text x="66" y="172" font-family="Microsoft YaHei, PingFang SC, sans-serif" font-size="16" fill="#333D4A">机：T113S3 Wi-Fi/音频/GPIO</text>
<rect x="52" y="190" width="4" height="20" rx="2" fill="#006BB7"/>
<text x="66" y="204" font-family="Microsoft YaHei, PingFang SC, sans-serif" font-size="16" fill="#333D4A">愿：闯关 + 双板联机答辩系统</text>
    <g transform="translate(668,98)" filter="url(#shadow)">
      <rect width="560" height="540" rx="18" fill="url(#panelGrad)" stroke="#E3F2FD" stroke-width="1"/>
      <g transform="translate(16,12)"><rect x="0" y="0" width="528" height="340" rx="14" fill="url(#grassGrad)"/>
<ellipse cx="154" cy="88" rx="40" ry="26" fill="#2A1C12"/>
<ellipse cx="154" cy="80" rx="30" ry="20" fill="#333D4A"/>
<text x="154" y="85" text-anchor="middle" font-family="Microsoft YaHei, PingFang SC, sans-serif" font-size="12" font-weight="700" fill="#fff">普</text>
<ellipse cx="256" cy="88" rx="40" ry="26" fill="#2A1C12"/>
<ellipse cx="256" cy="80" rx="30" ry="20" fill="#D4A84B"/>
<text x="256" y="85" text-anchor="middle" font-family="Microsoft YaHei, PingFang SC, sans-serif" font-size="12" font-weight="700" fill="#fff">金</text>
<ellipse cx="358" cy="88" rx="40" ry="26" fill="#2A1C12"/>
<ellipse cx="358" cy="80" rx="30" ry="20" fill="#333D4A"/>
<text x="358" y="85" text-anchor="middle" font-family="Microsoft YaHei, PingFang SC, sans-serif" font-size="12" font-weight="700" fill="#fff">普</text>
<ellipse cx="154" cy="190" rx="40" ry="26" fill="#2A1C12"/>
<ellipse cx="154" cy="182" rx="30" ry="20" fill="#B91C1C"/>
<text x="154" y="187" text-anchor="middle" font-family="Microsoft YaHei, PingFang SC, sans-serif" font-size="12" font-weight="700" fill="#fff">炸</text>
<ellipse cx="256" cy="190" rx="40" ry="26" fill="#2A1C12"/>
<ellipse cx="256" cy="182" rx="30" ry="20" fill="#333D4A"/>
<text x="256" y="187" text-anchor="middle" font-family="Microsoft YaHei, PingFang SC, sans-serif" font-size="12" font-weight="700" fill="#fff">普</text>
<ellipse cx="358" cy="190" rx="40" ry="26" fill="#2A1C12"/>
<ellipse cx="358" cy="182" rx="30" ry="20" fill="#D4A84B"/>
<text x="358" y="187" text-anchor="middle" font-family="Microsoft YaHei, PingFang SC, sans-serif" font-size="12" font-weight="700" fill="#fff">金</text>
<ellipse cx="154" cy="292" rx="40" ry="26" fill="#2A1C12"/>
<ellipse cx="154" cy="284" rx="30" ry="20" fill="#333D4A"/>
<text x="154" y="289" text-anchor="middle" font-family="Microsoft YaHei, PingFang SC, sans-serif" font-size="12" font-weight="700" fill="#fff">普</text>
<ellipse cx="256" cy="292" rx="40" ry="26" fill="#2A1C12"/>
<ellipse cx="256" cy="284" rx="30" ry="20" fill="#333D4A"/>
<text x="256" y="289" text-anchor="middle" font-family="Microsoft YaHei, PingFang SC, sans-serif" font-size="12" font-weight="700" fill="#fff">普</text>
<ellipse cx="358" cy="292" rx="40" ry="26" fill="#2A1C12"/>
<ellipse cx="358" cy="284" rx="30" ry="20" fill="#333D4A"/>
<text x="358" y="289" text-anchor="middle" font-family="Microsoft YaHei, PingFang SC, sans-serif" font-size="12" font-weight="700" fill="#fff">普</text>
<use href="#ico-hammer" x="400" y="8" width="48" height="48" opacity="0.9"/>
<rect x="16" y="290" width="88" height="32" rx="8" fill="#003D6B"/>
<text x="60" y="311" text-anchor="middle" font-family="Microsoft YaHei, PingFang SC, sans-serif" font-size="10" fill="#fff">START</text>
<rect x="116" y="290" width="88" height="32" rx="8" fill="#003D6B"/>
<text x="160" y="311" text-anchor="middle" font-family="Microsoft YaHei, PingFang SC, sans-serif" font-size="10" fill="#fff">LEVEL</text>
<rect x="216" y="290" width="88" height="32" rx="8" fill="#003D6B"/>
<text x="260" y="311" text-anchor="middle" font-family="Microsoft YaHei, PingFang SC, sans-serif" font-size="10" fill="#fff">MODE</text>
<rect x="316" y="290" width="88" height="32" rx="8" fill="#003D6B"/>
<text x="360" y="311" text-anchor="middle" font-family="Microsoft YaHei, PingFang SC, sans-serif" font-size="10" fill="#fff">STATS</text>
<rect x="416" y="290" width="88" height="32" rx="8" fill="#003D6B"/>
<text x="460" y="311" text-anchor="middle" font-family="Microsoft YaHei, PingFang SC, sans-serif" font-size="10" fill="#fff">WIFI</text></g>
    </g>
    
</svg>
