<?xml version="1.0" encoding="UTF-8"?>
<svg xmlns="http://www.w3.org/2000/svg" width="1280" height="720" viewBox="0 0 1280 720">

    <defs>
      <linearGradient id="hdrGrad" x1="0" y1="0" x2="1" y2="0">
        <stop offset="0%" stop-color="#004A82"/><stop offset="55%" stop-color="#006BB7"/><stop offset="100%" stop-color="#3A9BD9"/>
      </linearGradient>
      <linearGradient id="coverGrad" x1="0" y1="0" x2="1" y2="1">
        <stop offset="0%" stop-color="#003D6B"/><stop offset="100%" stop-color="#006BB7"/>
      </linearGradient>
      <linearGradient id="goldGrad" x1="0" y1="0" x2="1" y2="0">
        <stop offset="0%" stop-color="#C49A3D"/><stop offset="100%" stop-color="#D4A84B"/>
      </linearGradient>
      <linearGradient id="panelGrad" x1="0" y1="0" x2="0" y2="1">
        <stop offset="0%" stop-color="#ffffff"/><stop offset="100%" stop-color="#E3F2FD"/>
      </linearGradient>
      <linearGradient id="grassGrad" x1="0" y1="0" x2="0" y2="1">
        <stop offset="0%" stop-color="#5A9E56"/><stop offset="100%" stop-color="#3D7A3A"/>
      </linearGradient>
      <filter id="shadow" x="-10%" y="-10%" width="120%" height="120%">
        <feDropShadow dx="0" dy="5" stdDeviation="10" flood-color="#003D6B" flood-opacity="0.2"/>
      </filter>
      <filter id="glow"><feGaussianBlur stdDeviation="4" result="b"/><feMerge><feMergeNode in="b"/><feMergeNode in="SourceGraphic"/></feMerge></filter>
      <marker id="arr" markerWidth="10" markerHeight="8" refX="9" refY="4" orient="auto">
        <polygon points="0,0 10,4 0,8" fill="#D4A84B"/>
      </marker>
      <symbol id="ico-wifi" viewBox="0 0 24 24">
        <path d="M12 18c1.1 0 2-.9 2-2s-.9-2-2-2-2 .9-2 2 .9 2 2 2z" fill="#fff"/>
        <path d="M12 6C8 6 4.5 7.6 2 10l1.5 1.5C5.5 9.2 8.6 8 12 8s6.5 1.2 8.5 3.5L22 10c-2.5-2.4-6-4-10-4z" fill="#fff" opacity="0.9"/>
        <path d="M12 10c-2.5 0-4.8 1-6.5 2.6L7 14c1.3-1.2 3.1-2 5-2s3.7.8 5 2l1.5-1.4C17.8 11 15.5 10 12 10z" fill="#fff" opacity="0.75"/>
      </symbol>
      <symbol id="ico-chip" viewBox="0 0 24 24">
        <rect x="6" y="6" width="12" height="12" rx="2" fill="none" stroke="#fff" stroke-width="1.5"/>
        <path d="M9 3v3M12 3v3M15 3v3M9 18v3M12 18v3M15 18v3M3 9h3M3 12h3M3 15h3M18 9h3M18 12h3M18 15h3" stroke="#fff" stroke-width="1.5"/>
      </symbol>
      <symbol id="ico-hammer" viewBox="0 0 24 24">
        <rect x="4" y="14" width="14" height="4" rx="1" fill="#D4A84B" transform="rotate(-35 11 16)"/>
        <rect x="14" y="4" width="6" height="10" rx="1" fill="#8B6914" transform="rotate(-35 17 9)"/>
      </symbol>
    </defs>
    <g id="deco-dots" opacity="0.5"><circle cx="980" cy="120" r="2.5" fill="#3A9BD9" opacity="0.35"/>
<circle cx="1022" cy="120" r="2.5" fill="#3A9BD9" opacity="0.35"/>
<circle cx="1064" cy="120" r="2.5" fill="#3A9BD9" opacity="0.35"/>
<circle cx="1106" cy="120" r="2.5" fill="#3A9BD9" opacity="0.35"/>
<circle cx="1148" cy="120" r="2.5" fill="#3A9BD9" opacity="0.35"/>
<circle cx="1190" cy="120" r="2.5" fill="#3A9BD9" opacity="0.35"/>
<circle cx="980" cy="168" r="2.5" fill="#3A9BD9" opacity="0.35"/>
<circle cx="1022" cy="168" r="2.5" fill="#3A9BD9" opacity="0.35"/>
<circle cx="1064" cy="168" r="2.5" fill="#3A9BD9" opacity="0.35"/>
<circle cx="1106" cy="168" r="2.5" fill="#3A9BD9" opacity="0.35"/>
<circle cx="1148" cy="168" r="2.5" fill="#3A9BD9" opacity="0.35"/>
<circle cx="1190" cy="168" r="2.5" fill="#3A9BD9" opacity="0.35"/>
<circle cx="980" cy="216" r="2.5" fill="#3A9BD9" opacity="0.35"/>
<circle cx="1022" cy="216" r="2.5" fill="#3A9BD9" opacity="0.35"/>
<circle cx="1064" cy="216" r="2.5" fill="#3A9BD9" opacity="0.35"/>
<circle cx="1106" cy="216" r="2.5" fill="#3A9BD9" opacity="0.35"/>
<circle cx="1148" cy="216" r="2.5" fill="#3A9BD9" opacity="0.35"/>
<circle cx="1190" cy="216" r="2.5" fill="#3A9BD9" opacity="0.35"/></g>

<rect width="1280" height="720" fill="#FAFCFF"/>

    <rect x="0" y="0" width="8" height="720" fill="#006BB7"/>
    <rect x="8" y="0" width="1272" height="78" fill="url(#hdrGrad)"/>
    <rect x="52" y="68" width="120" height="4" fill="url(#goldGrad)" rx="2"/>
    <text x="52" y="48" font-family="Microsoft YaHei, PingFang SC, sans-serif" font-size="28" font-weight="700" fill="#fff">人员分工（开题方案）</text>
    <polygon points="1180,78 1280,78 1280,180 1100,78" fill="#3A9BD9" opacity="0.12"/>
    
    <rect x="0" y="658" width="1280" height="62" fill="#FAFCFF"/>
    <line x1="0" y1="658" x2="1280" y2="658" stroke="#E3F2FD" stroke-width="1"/>
    <text x="60" y="694" font-family="Microsoft YaHei, PingFang SC, sans-serif" font-size="11" fill="#6B7B8C">SmartMole Pro · 第六组</text>
    <text x="640" y="694" text-anchor="middle" font-family="Microsoft YaHei, PingFang SC, sans-serif" font-size="11" fill="#6B7B8C">团队与计划</text>
    <rect x="1188" y="672" rx="8" width="32" height="28" fill="url(#hdrGrad)"/>
    <text x="1204" y="692" text-anchor="middle" font-family="Microsoft YaHei, PingFang SC, sans-serif" font-size="12" font-weight="700" fill="#fff">17</text>
    
    
    <path d="M0,680 Q320,650 640,680 T1280,660 L1280,720 L0,720 Z" fill="#006BB7" fill-opacity="0.08"/>
    <path d="M0,700 Q400,670 800,700 T1280,685 L1280,720 L0,720 Z" fill="#3A9BD9" fill-opacity="0.044000000000000004"/>
    
    <rect x="48" y="96" width="808" height="274" rx="12" fill="#fff" filter="url(#shadow)"/><rect x="52" y="100" width="140" height="38" fill="url(#hdrGrad)"/><text x="66" y="125" font-family="Microsoft YaHei, PingFang SC, sans-serif" font-size="12" font-weight="700" fill="#fff">成员</text><rect x="192" y="100" width="380" height="38" fill="url(#hdrGrad)"/><text x="206" y="125" font-family="Microsoft YaHei, PingFang SC, sans-serif" font-size="12" font-weight="700" fill="#fff">负责模块</text><rect x="572" y="100" width="280" height="38" fill="url(#hdrGrad)"/><text x="586" y="125" font-family="Microsoft YaHei, PingFang SC, sans-serif" font-size="12" font-weight="700" fill="#fff">备注</text><rect x="52" y="138" width="140" height="38" fill="#fff"/><text x="66" y="163" font-family="Microsoft YaHei, PingFang SC, sans-serif" font-size="11" fill="#333D4A">张恒基</text><rect x="192" y="138" width="380" height="38" fill="#fff"/><text x="206" y="163" font-family="Microsoft YaHei, PingFang SC, sans-serif" font-size="11" fill="#333D4A">系统总架构+全局集成</text><rect x="572" y="138" width="280" height="38" fill="#fff"/><text x="586" y="163" font-family="Microsoft YaHei, PingFang SC, sans-serif" font-size="11" fill="#333D4A">项目负责人</text><rect x="52" y="176" width="140" height="38" fill="#E3F2FD"/><text x="66" y="201" font-family="Microsoft YaHei, PingFang SC, sans-serif" font-size="11" fill="#333D4A">曹佳轩</text><rect x="192" y="176" width="380" height="38" fill="#E3F2FD"/><text x="206" y="201" font-family="Microsoft YaHei, PingFang SC, sans-serif" font-size="11" fill="#333D4A">多模态输入+驱动</text><rect x="572" y="176" width="280" height="38" fill="#E3F2FD"/><text x="586" y="201" font-family="Microsoft YaHei, PingFang SC, sans-serif" font-size="11" fill="#333D4A">外设/辅助前端</text><rect x="52" y="214" width="140" height="38" fill="#fff"/><text x="66" y="239" font-family="Microsoft YaHei, PingFang SC, sans-serif" font-size="11" fill="#333D4A">缪钰</text><rect x="192" y="214" width="380" height="38" fill="#fff"/><text x="206" y="239" font-family="Microsoft YaHei, PingFang SC, sans-serif" font-size="11" fill="#333D4A">声光+GUI+UI</text><rect x="572" y="214" width="280" height="38" fill="#fff"/><text x="586" y="239" font-family="Microsoft YaHei, PingFang SC, sans-serif" font-size="11" fill="#333D4A">UI 核心</text><rect x="52" y="252" width="140" height="38" fill="#E3F2FD"/><text x="66" y="277" font-family="Microsoft YaHei, PingFang SC, sans-serif" font-size="11" fill="#333D4A">郭志罡</text><rect x="192" y="252" width="380" height="38" fill="#E3F2FD"/><text x="206" y="277" font-family="Microsoft YaHei, PingFang SC, sans-serif" font-size="11" fill="#333D4A">关卡+AI+特殊地鼠</text><rect x="572" y="252" width="280" height="38" fill="#E3F2FD"/><text x="586" y="277" font-family="Microsoft YaHei, PingFang SC, sans-serif" font-size="11" fill="#333D4A">核心框架</text><rect x="52" y="290" width="140" height="38" fill="#fff"/><text x="66" y="315" font-family="Microsoft YaHei, PingFang SC, sans-serif" font-size="11" fill="#333D4A">张耀辉</text><rect x="192" y="290" width="380" height="38" fill="#fff"/><text x="206" y="315" font-family="Microsoft YaHei, PingFang SC, sans-serif" font-size="11" fill="#333D4A">Wi-Fi联机+versus</text><rect x="572" y="290" width="280" height="38" fill="#fff"/><text x="586" y="315" font-family="Microsoft YaHei, PingFang SC, sans-serif" font-size="11" fill="#333D4A">versus 核心</text><rect x="52" y="328" width="140" height="38" fill="#E3F2FD"/><text x="66" y="353" font-family="Microsoft YaHei, PingFang SC, sans-serif" font-size="11" fill="#333D4A">朱辰骏</text><rect x="192" y="328" width="380" height="38" fill="#E3F2FD"/><text x="206" y="353" font-family="Microsoft YaHei, PingFang SC, sans-serif" font-size="11" fill="#333D4A">存储+排行榜+成就</text><rect x="572" y="328" width="280" height="38" fill="#E3F2FD"/><text x="586" y="353" font-family="Microsoft YaHei, PingFang SC, sans-serif" font-size="11" fill="#333D4A">联调+storage</text>
</svg>
